<svg xmlns="http://www.w3.org/2000/svg" width="1200" height="680" viewBox="0 0 1200 680" fill="none">
  <rect width="1200" height="680" rx="32" fill="#081120"/>
  <rect x="50" y="50" width="1100" height="580" rx="28" fill="#101a2d" stroke="#24324f"/>
  <text x="80" y="105" fill="#F3F7FF" font-family="Arial" font-size="34" font-weight="700">Week 5 Multimodal Flask Architecture</text>
  <rect x="80" y="150" width="220" height="120" rx="22" fill="#16223b" stroke="#35518A"/>
  <text x="110" y="195" fill="#B7C4DA" font-family="Arial" font-size="24">User Input</text>
  <text x="110" y="230" fill="#F3F7FF" font-family="Arial" font-size="20">Text + Image + Audio</text>

  <rect x="360" y="120" width="210" height="120" rx="22" fill="#17263E" stroke="#49639A"/>
  <text x="390" y="170" fill="#F3F7FF" font-family="Arial" font-size="24">Text Branch</text>
  <text x="390" y="205" fill="#B7C4DA" font-family="Arial" font-size="18">BERT classifier</text>

  <rect x="360" y="270" width="210" height="120" rx="22" fill="#17263E" stroke="#49639A"/>
  <text x="390" y="320" fill="#F3F7FF" font-family="Arial" font-size="24">Image Branch</text>
  <text x="390" y="355" fill="#B7C4DA" font-family="Arial" font-size="18">CLIP encoder</text>

  <rect x="360" y="420" width="210" height="120" rx="22" fill="#17263E" stroke="#49639A"/>
  <text x="390" y="470" fill="#F3F7FF" font-family="Arial" font-size="24">Audio Branch</text>
  <text x="390" y="505" fill="#B7C4DA" font-family="Arial" font-size="18">Wav2Vec2 + transcript</text>

  <rect x="650" y="210" width="220" height="240" rx="24" fill="#17263E" stroke="#2DD4BF"/>
  <text x="682" y="260" fill="#F3F7FF" font-family="Arial" font-size="28">Fusion Layer</text>
  <text x="682" y="305" fill="#B7C4DA" font-family="Arial" font-size="18">Concatenation</text>
  <text x="682" y="335" fill="#B7C4DA" font-family="Arial" font-size="18">Cross-modal attention</text>
  <text x="682" y="365" fill="#B7C4DA" font-family="Arial" font-size="18">Late fusion</text>

  <rect x="940" y="210" width="170" height="240" rx="24" fill="#17263E" stroke="#FF7AA2"/>
  <text x="970" y="260" fill="#F3F7FF" font-family="Arial" font-size="26">Task Logic</text>
  <text x="970" y="300" fill="#B7C4DA" font-family="Arial" font-size="18">Detailed response</text>
  <text x="970" y="330" fill="#B7C4DA" font-family="Arial" font-size="18">Classification</text>
  <text x="970" y="360" fill="#B7C4DA" font-family="Arial" font-size="18">Retrieval summary</text>
  <text x="970" y="390" fill="#B7C4DA" font-family="Arial" font-size="18">Task execution</text>

  <rect x="760" y="520" width="350" height="80" rx="18" fill="#132035" stroke="#6F7CFF"/>
  <text x="785" y="565" fill="#F3F7FF" font-family="Arial" font-size="22">Evaluation Dashboard</text>
  <text x="785" y="592" fill="#B7C4DA" font-family="Arial" font-size="17">Task success, precision, recall, F1, task time, relevance</text>

  <path d="M300 210H360" stroke="#6F7CFF" stroke-width="4"/>
  <path d="M300 210V330H360" stroke="#6F7CFF" stroke-width="4"/>
  <path d="M300 210V480H360" stroke="#6F7CFF" stroke-width="4"/>
  <path d="M570 180H650" stroke="#2DD4BF" stroke-width="4"/>
  <path d="M570 330H650" stroke="#2DD4BF" stroke-width="4"/>
  <path d="M570 480H650" stroke="#2DD4BF" stroke-width="4"/>
  <path d="M870 330H940" stroke="#FF7AA2" stroke-width="4"/>
  <path d="M1025 450V520" stroke="#6F7CFF" stroke-width="4"/>
</svg>
